/vscmnt/brussel_pixiu_data/_data_brussel/112/vsc11236/PredSimResults/SUBJ04mtu3D/worker6.mot
version=1
nRows=8
nColumns=50
inDegrees=yes
endheader
                time	         pelvis_tilt	         pelvis_list	     pelvis_rotation	           pelvis_tx	           pelvis_ty	           pelvis_tz	       hip_flexion_r	     hip_adduction_r	      hip_rotation_r	        knee_angle_r	       ankle_angle_r	         mtp_angle_r	       hip_flexion_l	     hip_adduction_l	      hip_rotation_l	        knee_angle_l	       ankle_angle_l	         mtp_angle_l	    lumbar_extension	      lumbar_bending	     lumbar_rotation	 ercspn_r/activation	 intobl_r/activation	 extobl_r/activation	    abd_r/activation	    add_r/activation	hamstrings_r/activation	bifemsh_r/activation	glut_max_r/activation	iliopsoas_r/activation	rect_fem_r/activation	  vasti_r/activation	gastroc_r/activation	 soleus_r/activation	tib_ant_r/activation	 ercspn_l/activation	 intobl_l/activation	 extobl_l/activation	    abd_l/activation	    add_l/activation	hamstrings_l/activation	bifemsh_l/activation	glut_max_l/activation	iliopsoas_l/activation	rect_fem_l/activation	  vasti_l/activation	gastroc_l/activation	 soleus_l/activation	tib_ant_l/activation	
          1.36493615	         -3.46736319	          1.03516511	          8.13848446	          1.28303998	          0.87951246	         -0.01035639	         29.51314231	         -3.75371144	        -10.32476932	         -8.05956891	          4.40934755	          0.23731339	        -12.45047249	          0.35439131	         -9.68172657	         -7.46329653	         10.11834788	         25.04482200	        -14.19429189	         -4.47109661	         -7.54157348	          0.01509577	          0.22491884	          0.02476248	          0.00999999	          0.25363370	          0.08921895	          0.10471077	          0.01348230	          0.16896950	          0.02440928	          0.01154353	          0.01884824	          0.01595929	          0.33252693	          0.01879053	          0.00999999	          0.00999999	          0.06228772	          0.01000000	          0.02399210	          0.12119349	          0.01849494	          0.01000001	          0.00999999	          0.00999999	          0.36188084	          0.18254794	          0.00999999	
          1.37858551	         -3.55798509	          1.09307329	          7.94429393	          1.29931970	          0.87736500	         -0.00998027	         29.51823933	         -3.76569773	        -10.52022869	         -9.79654045	          4.12861608	          0.22482138	        -13.19280675	          0.29268765	        -10.34039805	         -7.94218009	          9.58428417	         26.48610285	        -13.70769468	         -3.89001324	         -7.58218756	          0.01229809	          0.22626953	          0.02017327	          0.03407970	          0.20662802	          0.08212876	          0.08530483	          0.02547696	          0.13765456	          0.01988553	          0.00999999	          0.01535512	          0.01300157	          0.37062819	          0.02173188	          0.00999999	          0.01000000	          0.05074400	          0.01000001	          0.01954568	          0.09873283	          0.01506729	          0.00999999	          0.00999999	          0.01000000	          0.33796375	          0.17398914	          0.00999999	
          1.39223487	         -3.63265848	          1.08908239	          7.69479073	          1.31593777	          0.87553519	         -0.00953026	         29.44250119	         -3.73922119	        -10.72066388	        -11.36429722	          3.64599353	          0.21245724	        -13.81351579	          0.14487483	        -11.03117058	         -8.69607323	          8.94682315	         27.96389290	        -13.19249548	         -3.21384482	         -7.58901563	          0.02690198	          0.18433523	          0.01643458	          0.05880281	          0.21211664	          0.07774317	          0.06949537	          0.06251437	          0.11214318	          0.01620017	          0.02986281	          0.01250937	          0.01059200	          0.39356036	          0.04408966	          0.00999999	          0.00999999	          0.04133967	          0.00999999	          0.01592330	          0.08043477	          0.01227488	          0.01849494	          0.01000005	          0.00999999	          0.31137018	          0.15760036	          0.00999999	
          1.40588423	         -3.69117867	          1.04646236	          7.38828663	          1.33271530	          0.87420976	         -0.00896859	         29.33949105	         -3.68061147	        -11.00607862	        -12.91008827	          3.19718009	          0.19192877	        -14.23082052	         -0.08090551	        -11.75945905	         -9.85201973	          8.17372960	         29.47194530	        -12.67602294	         -2.47665112	         -7.55932540	          0.02520434	          0.15017257	          0.01338878	          0.08102544	          0.21860856	          0.07322035	          0.05661587	          0.05092866	          0.09135980	          0.01319781	          0.07948214	          0.01019102	          0.00999999	          0.42311559	          0.05223681	          0.00999999	          0.00999999	          0.03367823	          0.00999999	          0.01297227	          0.06552788	          0.00999999	          0.01506729	          0.01000000	          0.00999999	          0.26447048	          0.13919452	          0.00999999	
          1.41953359	         -3.73363776	          0.95722119	          7.04178291	          1.34955809	          0.87350121	         -0.00829184	         29.15024845	         -3.56944491	        -11.34717054	        -14.35547312	          2.91976167	          0.16952988	        -14.38815652	         -0.41313370	        -12.51393410	        -11.49372887	          7.25679396	         30.96086021	        -12.16885137	         -1.67664680	         -7.49603835	          0.02053361	          0.12234124	          0.01090745	          0.10735097	          0.19582922	          0.07151987	          0.04612331	          0.05507308	          0.07442818	          0.01075187	          0.12165708	          0.00999999	          0.00999999	          0.42861444	          0.07757461	          0.00999999	          0.00999999	          0.02743668	          0.01000000	          0.01201011	          0.05338366	          0.00999999	          0.01227489	          0.00999999	          0.01928159	          0.21545644	          0.11339774	          0.00999999	
          1.43318295	         -3.76128164	          0.81751800	          6.67117597	          1.36635778	          0.87349977	         -0.00750538	         28.83306358	         -3.37789917	        -11.65622820	        -15.61974725	          2.84399517	          0.15132760	        -14.26720219	         -0.86870316	        -13.28680751	        -13.62652260	          6.17330669	         32.33382749	        -11.68119218	         -0.81632376	         -7.40545941	          0.01672814	          0.09966786	          0.00999999	          0.13000383	          0.18108781	          0.06889739	          0.03757533	          0.04955227	          0.06063448	          0.00999999	          0.14888038	          0.01000000	          0.01000000	          0.42087815	          0.09803808	          0.00999999	          0.00999999	          0.02235186	          0.01000001	          0.06079541	          0.04349012	          0.01457835	          0.01000000	          0.00999999	          0.01849494	          0.17552611	          0.09238185	          0.00999999	
          1.44683232	         -3.77521918	          0.63398338	          6.29098825	          1.38300137	          0.87422330	         -0.00662371	         28.37885869	         -3.09686626	        -11.86090874	        -16.66895961	          2.94128779	          0.13937168	        -13.85070111	         -1.45397166	        -14.07112657	        -16.25720328	          4.90963027	         33.47912793	        -11.22435301	          0.09165142	         -7.29367331	          0.01459764	          0.08119652	          0.00999999	          0.14115363	          0.18305764	          0.07028951	          0.03061153	          0.04036880	          0.04939715	          0.00999999	          0.16122806	          0.00999999	          0.00999999	          0.40359986	          0.09838817	          0.02350113	          0.00999999	          0.01820942	          0.03276868	          0.07199965	          0.03543014	          0.01227488	          0.00999999	          0.00999999	          0.01506729	          0.14299604	          0.07526082	          0.00999999	
          1.46048168	         -3.77631661	          0.43365070	          5.91202711	          1.39939898	          0.87559831	         -0.00565816	         27.78580735	         -2.75217471	        -11.95456996	        -17.48691387	          3.17998517	          0.14152127	        -13.12094769	         -2.15634583	        -14.85211513	        -19.40007401	          3.48448240	         34.22476768	        -10.81028577	          1.01043616	         -7.15916712	          0.01506730	          0.06614845	          0.00999999	          0.14929696	          0.16514359	          0.07100332	          0.02493833	          0.03288730	          0.04024243	          0.00999999	          0.17856116	          0.00999999	          0.00999999	          0.37335534	          0.10366116	          0.04858590	          0.00999999	          0.01483468	          0.02669572	          0.08662441	          0.02886391	          0.00999999	          0.00999999	          0.00999999	          0.01227488	          0.11649473	          0.06131281	          0.01663095	
